<svg width="24" height="24" viewBox="0 0 24 24" fill="none" xmlns="http://www.w3.org/2000/svg">
<path d="M12 22C17.5228 22 22 17.5228 22 12C22 6.47715 17.5228 2 12 2C6.47715 2 2 6.47715 2 12C2 17.5228 6.47715 22 12 22Z" stroke="#B0B0B0" stroke-width="2" stroke-linecap="round" stroke-linejoin="round"/>
<path d="M12 6V18" stroke="#B0B0B0" stroke-width="2" stroke-linecap="round" stroke-linejoin="round"/>
<path d="M14.5 8H10.75C10.2859 8 9.84075 8.21071 9.51256 8.58579C9.18437 8.96086 9 9.46957 9 10C9 10.5304 9.18437 11.0391 9.51256 11.4142C9.84075 11.7893 10.2859 12 10.75 12H13.25C13.7141 12 14.1592 12.2107 14.4874 12.5858C14.8156 12.9609 15 13.4696 15 14C15 14.5304 14.8156 15.0391 14.4874 15.4142C14.1592 15.7893 13.7141 16 13.25 16H9" stroke="#B0B0B0" stroke-width="2" stroke-linecap="round" stroke-linejoin="round"/>
</svg>
